<?xml version="1.0" encoding="UTF-8" standalone="no"?>
<!-- Created with Inkscape (http://www.inkscape.org/) -->

<svg
   xmlns:dc="http://purl.org/dc/elements/1.1/"
   xmlns:cc="http://creativecommons.org/ns#"
   xmlns:rdf="http://www.w3.org/1999/02/22-rdf-syntax-ns#"
   xmlns:svg="http://www.w3.org/2000/svg"
   xmlns="http://www.w3.org/2000/svg"
   xmlns:sodipodi="http://sodipodi.sourceforge.net/DTD/sodipodi-0.dtd"
   xmlns:inkscape="http://www.inkscape.org/namespaces/inkscape"
   width="800"
   height="480"
   viewBox="0 0 211.66666 127"
   version="1.1"
   id="svg8"
   inkscape:version="0.92.1 r15371"
   sodipodi:docname="title.svg"
   inkscape:export-filename="C:\Users\Qishen Wu\bitmap.png"
   inkscape:export-xdpi="96"
   inkscape:export-ydpi="96">
  <defs
     id="defs2" />
  <sodipodi:namedview
     id="base"
     pagecolor="#ffffff"
     bordercolor="#666666"
     borderopacity="1.0"
     inkscape:pageopacity="0.0"
     inkscape:pageshadow="2"
     inkscape:zoom="0.98994949"
     inkscape:cx="230.83341"
     inkscape:cy="345.51124"
     inkscape:document-units="px"
     inkscape:current-layer="layer1"
     showgrid="false"
     units="px"
     inkscape:window-width="1920"
     inkscape:window-height="1017"
     inkscape:window-x="-8"
     inkscape:window-y="-8"
     inkscape:window-maximized="1" />
  <metadata
     id="metadata5">
    <rdf:RDF>
      <cc:Work
         rdf:about="">
        <dc:format>image/svg+xml</dc:format>
        <dc:type
           rdf:resource="http://purl.org/dc/dcmitype/StillImage" />
        <dc:title></dc:title>
      </cc:Work>
    </rdf:RDF>
  </metadata>
  <g
     inkscape:label="Layer 1"
     inkscape:groupmode="layer"
     id="layer1"
     transform="translate(0,-169.99998)">
    <text
       xml:space="preserve"
       style="font-style:normal;font-variant:normal;font-weight:normal;font-stretch:normal;font-size:25.39999962px;line-height:1.25;font-family:Orbitron;-inkscape-font-specification:Orbitron;letter-spacing:0px;word-spacing:0px;fill:#000000;fill-opacity:1;stroke:none;stroke-width:0.26458332"
       x="39.185322"
       y="227.02315"
       id="text4491"><tspan
         sodipodi:role="line"
         id="tspan4489"
         x="39.185322"
         y="227.02315"
         style="font-style:normal;font-variant:normal;font-weight:500;font-stretch:normal;font-family:Orbitron;-inkscape-font-specification:'Orbitron Medium';stroke-width:0.26458332">Hangman</tspan></text>
    <path
       style="fill:#050505;stroke-width:0.14950924"
       d="m 3.2334608,290.77144 c -0.104542,-0.13488 -0.10063,-0.94965 0.0061,-1.2609 0.07258,-0.21175 0.369293,-0.23362 3.1688703,-0.23362 h 3.0887932 l -0.0051,-16.58765 c -0.0028,-9.12322 -0.0039,-16.66275 -0.0025,-16.75453 0.0015,-0.096 0.215997,-0.16688 0.504857,-0.16688 0.2762687,0 0.5023067,0.0601 0.5023067,0.1335 0,0.0879 4.404572,0.1335 12.878843,0.1335 7.083364,0 12.998025,0.0365 13.14369,0.081 0.227045,0.0695 0.264848,0.40294 0.264848,2.33628 v 2.25526 H 36.198145 35.61212 v -1.93578 -1.93578 h -8.539213 c -8.096604,0 -8.539213,0.0124 -8.539213,0.23919 0,0.13155 -0.244874,0.45919 -0.544165,0.72809 -1.522371,1.36776 -1.889045,1.71745 -1.948129,1.85793 -0.03546,0.0843 -0.355684,0.36678 -0.711601,0.62771 -0.355917,0.26092 -0.647122,0.5238 -0.647122,0.58417 0,0.0604 -0.301384,0.33072 -0.669742,0.60076 -0.368358,0.27005 -0.669742,0.53853 -0.669742,0.59662 0,0.0581 -0.282548,0.33831 -0.627884,0.62272 -0.345336,0.28441 -0.816248,0.71606 -1.046472,0.95922 -0.230224,0.24315 -0.550444,0.54058 -0.711601,0.66095 -0.274977,0.20539 -0.293012,0.98039 -0.293012,12.59127 v 12.37241 l 3.139416,0.005 c 2.495822,0.004 3.182323,0.044 3.348711,0.19462 0.268644,0.24329 0.268644,0.56329 0,0.63469 -0.167436,0.0445 -0.167436,0.0668 0,0.11125 0.352917,0.0938 0.233941,0.51307 -0.167436,0.59005 -0.605816,0.11618 -13.6597402,0.0771 -13.7514162,-0.0412 z M 11.52208,262.57592 c 0.356964,-0.27622 0.649025,-0.55788 0.649025,-0.62592 0,-0.068 0.299678,-0.33039 0.665952,-0.58301 0.366273,-0.25261 0.667657,-0.51979 0.669742,-0.59372 0.0021,-0.0739 0.259844,-0.3218 0.572797,-0.55081 0.312953,-0.22901 0.659669,-0.55145 0.770478,-0.71654 0.110809,-0.16509 0.457524,-0.48753 0.770478,-0.71654 0.312953,-0.22901 0.569746,-0.47687 0.57065,-0.55081 8.86e-4,-0.0739 0.301548,-0.34469 0.668098,-0.60168 0.36655,-0.25699 0.667195,-0.54235 0.668099,-0.63413 0.0013,-0.12813 -0.795589,-0.16688 -3.430785,-0.16688 h -3.432429 l 0.01322,3.30417 c 0.0073,1.8173 0.05427,3.22181 0.104435,3.12113 0.05017,-0.10068 0.383277,-0.40905 0.740242,-0.68526 z"
       id="path5062"
       inkscape:connector-curvature="0" />
    <path
       style="fill:none;fill-opacity:1;stroke:#340000;stroke-width:0.88714021;stroke-miterlimit:4;stroke-dasharray:none;stroke-opacity:1"
       d="m 205.7481,258.02018 a 8.8713996,8.8714055 0 0 1 -8.8714,8.8714 8.8713996,8.8714055 0 0 1 -8.8714,-8.8714 8.8713996,8.8714055 0 0 1 8.8714,-8.8714 8.8713996,8.8714055 0 0 1 8.8714,8.8714 z"
       id="path3680"
       inkscape:connector-curvature="0"
       inkscape:label="head">
      <title
         id="title4488">head</title>
    </path>
    <path
       style="display:inline;fill:none;fill-opacity:1;stroke:#340000;stroke-width:0.93149704;stroke-linecap:butt;stroke-linejoin:miter;stroke-miterlimit:4;stroke-dasharray:none;stroke-opacity:1"
       d="m 196.8767,267.00247 c 0,18.43034 0,18.43034 0,18.43034"
       id="path4485"
       inkscape:connector-curvature="0"
       inkscape:label="body">
      <title
         id="title4490">body</title>
    </path>
    <path
       style="display:inline;fill:none;fill-opacity:1;stroke:#340000;stroke-width:0.93148518;stroke-linecap:round;stroke-linejoin:miter;stroke-miterlimit:4;stroke-dasharray:none;stroke-opacity:1"
       d="m 196.8767,285.43281 c -9.5204,9.52039 -9.49468,9.49467 -9.49468,9.49467"
       id="path4510"
       inkscape:connector-curvature="0"
       inkscape:label="leg_left">
      <title
         id="title4496">leg_left</title>
    </path>
    <path
       style="display:inline;fill:none;fill-opacity:1;stroke:#340000;stroke-width:0.93148518;stroke-linecap:round;stroke-linejoin:miter;stroke-miterlimit:4;stroke-dasharray:none;stroke-opacity:1"
       d="m 206.37137,294.92748 c -9.5204,-9.5204 -9.49467,-9.49467 -9.49467,-9.49467"
       id="path4510-3"
       inkscape:connector-curvature="0"
       inkscape:label="leg_right">
      <title
         id="title4498">leg-right</title>
    </path>
    <path
       style="display:inline;fill:none;fill-opacity:1;stroke:#340000;stroke-width:0.93148518;stroke-linecap:round;stroke-linejoin:miter;stroke-miterlimit:4;stroke-dasharray:none;stroke-opacity:1"
       d="M 196.82209,274.00746 C 184.3039,270.65322 184.3039,270.65322 184.3039,270.65322"
       id="path4535"
       inkscape:connector-curvature="0"
       inkscape:label="hand_left">
      <title
         id="title4492">hand_left</title>
    </path>
    <path
       style="display:inline;fill:none;fill-opacity:1;stroke:#340000;stroke-width:0.93148518;stroke-linecap:round;stroke-linejoin:miter;stroke-miterlimit:4;stroke-dasharray:none;stroke-opacity:1"
       d="m 196.82209,274.00746 c 12.51819,-3.35424 12.51819,-3.35424 12.51819,-3.35424"
       id="path4535-3"
       inkscape:connector-curvature="0"
       inkscape:label="hand_right">
      <title
         id="title4494">hand_right</title>
    </path>
    <circle
       style="display:inline;fill:#000000;fill-opacity:1;stroke:#340000;stroke-width:0.68715978;stroke-linecap:round;stroke-miterlimit:4;stroke-dasharray:none;stroke-opacity:1;paint-order:markers fill stroke"
       id="eye_left"
       cx="194.15926"
       cy="255.71407"
       r="0.59052801"
       inkscape:label="#path4500" />
    <circle
       style="display:inline;fill:#000000;fill-opacity:1;stroke:#340000;stroke-width:0.68715996;stroke-linecap:round;stroke-miterlimit:4;stroke-dasharray:none;stroke-opacity:1;paint-order:markers fill stroke"
       id="eye-right"
       cx="199.48584"
       cy="255.71407"
       r="0.59052801"
       inkscape:label="#path4500-4" />
    <path
       style="display:inline;fill:#000000;fill-opacity:1;stroke:#340000;stroke-width:0.04657426px;stroke-linecap:butt;stroke-linejoin:miter;stroke-opacity:1"
       d="m 196.27494,260.44308 0.54607,-2.03793 0.54811,2.04556 z"
       id="nose"
       inkscape:connector-curvature="0"
       inkscape:label="#path4538" />
    <path
       style="display:inline;fill:none;fill-opacity:1;stroke:#340000;stroke-width:0.71196496;stroke-linecap:round;stroke-linejoin:miter;stroke-miterlimit:4;stroke-dasharray:none;stroke-opacity:1"
       d="m 194.25088,262.5529 c 3.04233,1.95685 5.14299,-0.0272 5.14299,-0.0272"
       id="mouth"
       inkscape:connector-curvature="0"
       inkscape:label="#path4540" />
  </g>
</svg>
